<svg xmlns="http://www.w3.org/2000/svg" width="24" height="24" viewBox="0 0 24 24">
  <g id="العناوين" transform="translate(-861 -833)">
    <g id="Rectangle_19072" data-name="Rectangle 19072" transform="translate(861 833)" fill="#1a1817" stroke="#707070" stroke-width="1" opacity="0">
      <rect width="24" height="24" stroke="none"/>
      <rect x="0.5" y="0.5" width="23" height="23" fill="none"/>
    </g>
    <g id="marker" transform="translate(863.055 835.002)">
      <path id="Path_27712" data-name="Path 27712" d="M11.333,6a3.333,3.333,0,1,0,3.333,3.333A3.333,3.333,0,0,0,11.333,6Zm0,5A1.667,1.667,0,1,1,13,9.333,1.667,1.667,0,0,1,11.333,11Z" transform="translate(-1.01 -1.001)" fill="#1a1817"/>
      <path id="Path_27713" data-name="Path 27713" d="M10.323,20a4.392,4.392,0,0,1-3.592-1.833c-3.176-4.38-4.786-7.674-4.786-9.788a8.378,8.378,0,1,1,16.757,0c0,2.115-1.611,5.408-4.786,9.788A4.392,4.392,0,0,1,10.323,20Zm0-18.181A6.569,6.569,0,0,0,3.762,8.378c0,1.675,1.577,4.772,4.44,8.721a2.621,2.621,0,0,0,4.241,0c2.863-3.949,4.44-7.046,4.44-8.721a6.569,6.569,0,0,0-6.561-6.561Z" fill="#1a1817"/>
    </g>
  </g>
</svg>
