<svg xmlns="http://www.w3.org/2000/svg" width="16" height="16" viewBox="0 0 16 16">
  <g id="السلة" transform="translate(-1146 -586)">
    <g id="Rectangle_19076" data-name="Rectangle 19076" transform="translate(1146 586)" fill="#fff" stroke="#707070" stroke-width="1" opacity="0">
      <rect width="16" height="16" stroke="none"/>
      <rect x="0.5" y="0.5" width="15" height="15" fill="none"/>
    </g>
    <g id="_01_align_center" data-name="01 align center" transform="translate(1146 586)">
      <path id="Path_27710" data-name="Path 27710" d="M16,2H2.828L2.8,1.766A2,2,0,0,0,.815,0H0V1.333H.815a.667.667,0,0,1,.662.589L2.533,10.9a2,2,0,0,0,1.985,1.766h8.815V11.333H4.519a.667.667,0,0,1-.662-.589L3.769,10H14.557ZM13.443,8.667H3.613L2.985,3.333H14.4Z"/>
      <circle id="Ellipse_686" data-name="Ellipse 686" cx="1" cy="1" r="1" transform="translate(4 14)"/>
      <circle id="Ellipse_687" data-name="Ellipse 687" cx="1" cy="1" r="1" transform="translate(10 14)"/>
    </g>
  </g>
</svg>
